<svg width="16" height="16" viewBox="0 0 16 16" fill="none" xmlns="http://www.w3.org/2000/svg">
<g clip-path="url(#clip0_1_97)">
<path d="M10.6571 13.9875V12.6553C10.6571 11.9487 10.3764 11.2711 9.87679 10.7714C9.37714 10.2718 8.69947 9.99106 7.99286 9.99106H3.99644C3.28982 9.99106 2.61215 10.2718 2.1125 10.7714C1.61285 11.2711 1.33215 11.9487 1.33215 12.6553V13.9875" stroke="#6A7282" stroke-width="1.33214" stroke-linecap="round" stroke-linejoin="round"/>
<path d="M5.99467 7.32678C7.46611 7.32678 8.65895 6.13394 8.65895 4.6625C8.65895 3.19105 7.46611 1.99821 5.99467 1.99821C4.52322 1.99821 3.33038 3.19105 3.33038 4.6625C3.33038 6.13394 4.52322 7.32678 5.99467 7.32678Z" stroke="#6A7282" stroke-width="1.33214" stroke-linecap="round" stroke-linejoin="round"/>
<path d="M14.6535 13.9875V12.6553C14.6531 12.065 14.4566 11.4916 14.095 11.025C13.7333 10.5585 13.2269 10.2252 12.6553 10.0777" stroke="#6A7282" stroke-width="1.33214" stroke-linecap="round" stroke-linejoin="round"/>
<path d="M10.6571 2.08481C11.2302 2.23154 11.7382 2.56485 12.1009 3.03217C12.4636 3.49949 12.6605 4.07425 12.6605 4.66583C12.6605 5.25742 12.4636 5.83218 12.1009 6.2995C11.7382 6.76682 11.2302 7.10012 10.6571 7.24686" stroke="#6A7282" stroke-width="1.33214" stroke-linecap="round" stroke-linejoin="round"/>
</g>
<defs>
<clipPath id="clip0_1_97">
<rect width="15.9857" height="15.9857" fill="white"/>
</clipPath>
</defs>
</svg>
